<svg width="1210" height="1210" viewBox="0 0 1210 1210" fill="none" xmlns="http://www.w3.org/2000/svg">
<path d="M1210 605C1210 939.132 939.132 1210 605 1210C270.868 1210 6.14524e-05 939.132 6.14524e-05 605C6.14524e-05 270.868 270.868 0 605 0C939.132 0 1210 270.868 1210 605Z" fill="url(#paint0_linear_516_2429)"/>
<path d="M10.6125 1150C10.6125 1150 95.5326 885.167 265.033 798C441.699 835.333 697.871 1050.99 301.611 1110.5C38.6114 1150 -29.3872 1287 10.6125 1150Z" fill="url(#paint1_linear_516_2429)"/>
<path d="M440.368 760C420.544 760 410.632 750.088 410.632 730.264V309.712C410.632 289.888 420.544 279.976 440.368 279.976C450.516 279.976 460.428 285.876 470.104 297.676L754.72 664.42H739.852V309.712C739.852 289.888 749.764 279.976 769.588 279.976C789.412 279.976 799.324 289.888 799.324 309.712V730.264C799.324 750.088 789.412 760 769.588 760C758.968 760 749.056 754.1 739.852 742.3L455.236 375.556H470.104V730.264C470.104 750.088 460.192 760 440.368 760Z" fill="url(#paint2_linear_516_2429)"/>
<circle cx="440" cy="874" r="41" fill="url(#paint3_linear_516_2429)"/>
<circle cx="605" cy="874" r="41" fill="url(#paint4_linear_516_2429)"/>
<circle cx="770" cy="874" r="41" fill="url(#paint5_linear_516_2429)"/>
<defs>
<linearGradient id="paint0_linear_516_2429" x1="605" y1="0" x2="605" y2="1210" gradientUnits="userSpaceOnUse">
<stop stop-color="#5800FF"/>
<stop offset="0.859375" stop-color="#BD00FF"/>
</linearGradient>
<linearGradient id="paint1_linear_516_2429" x1="605" y1="0" x2="605" y2="1210" gradientUnits="userSpaceOnUse">
<stop stop-color="#5800FF"/>
<stop offset="0.859375" stop-color="#BD00FF"/>
</linearGradient>
<linearGradient id="paint2_linear_516_2429" x1="605" y1="77" x2="605" y2="915" gradientUnits="userSpaceOnUse">
<stop stop-color="white"/>
<stop offset="1" stop-color="white" stop-opacity="0.6"/>
</linearGradient>
<linearGradient id="paint3_linear_516_2429" x1="440" y1="833" x2="440" y2="915" gradientUnits="userSpaceOnUse">
<stop stop-color="white"/>
<stop offset="1" stop-color="white" stop-opacity="0.6"/>
</linearGradient>
<linearGradient id="paint4_linear_516_2429" x1="605" y1="833" x2="605" y2="915" gradientUnits="userSpaceOnUse">
<stop stop-color="white"/>
<stop offset="1" stop-color="white" stop-opacity="0.6"/>
</linearGradient>
<linearGradient id="paint5_linear_516_2429" x1="770" y1="833" x2="770" y2="915" gradientUnits="userSpaceOnUse">
<stop stop-color="white"/>
<stop offset="1" stop-color="white" stop-opacity="0.6"/>
</linearGradient>
</defs>
</svg>
