<svg width="181" height="183" viewBox="0 0 181 183" fill="none" xmlns="http://www.w3.org/2000/svg">
<path d="M181 13.7597L181 171.311C181 177.767 175.767 183 169.311 183C162.856 183 157.622 177.767 157.622 171.311L157.622 69.5965L119.054 175.136C117.328 179.859 112.836 183 107.807 183C99.4881 183 93.7042 174.725 96.5623 166.912L154.318 9.03252C156.302 3.60776 161.464 -1.35509e-05 167.24 -1.40559e-05C174.84 -1.47202e-05 181 6.16045 181 13.7597Z" fill="url(#paint0_linear_480_2426)"/>
<path d="M131.941 15.4882L71.5815 175.409C69.8574 179.977 65.4848 183 60.6021 183C52.3807 183 46.7075 174.765 49.6367 167.083L110.537 7.36815C112.229 2.93152 116.484 -9.6186e-06 121.232 -1.00337e-05C129.234 -1.07333e-05 134.767 8.00145 131.941 15.4882Z" fill="url(#paint1_linear_480_2426)"/>
<path d="M85.5148 15.4748L25.1417 174.615C23.227 179.663 18.3913 183 12.9933 183C5.81729 183 1.47502e-05 177.183 1.41229e-05 170.007L2.51325e-07 11.3346C-2.95937e-07 5.07469 5.07469 1.21089e-07 11.3346 -4.26174e-07C17.5946 -9.73436e-07 22.6693 5.07471 22.6693 11.3347L22.6693 116.936L64.1516 7.37814C65.833 2.93745 70.0862 -5.5624e-06 74.8345 -5.97751e-06C82.8287 -6.67639e-06 88.3504 8.00044 85.5148 15.4748Z" fill="url(#paint2_linear_480_2426)"/>
<defs>
<linearGradient id="paint0_linear_480_2426" x1="90.5" y1="183" x2="90.5" y2="-7.34703e-06" gradientUnits="userSpaceOnUse">
<stop stop-color="#53DCFB"/>
<stop offset="1" stop-color="#FF5FEF"/>
</linearGradient>
<linearGradient id="paint1_linear_480_2426" x1="90.5" y1="183" x2="90.5" y2="-7.34703e-06" gradientUnits="userSpaceOnUse">
<stop stop-color="#53DCFB"/>
<stop offset="1" stop-color="#FF5FEF"/>
</linearGradient>
<linearGradient id="paint2_linear_480_2426" x1="90.5" y1="183" x2="90.5" y2="-7.34703e-06" gradientUnits="userSpaceOnUse">
<stop stop-color="#53DCFB"/>
<stop offset="1" stop-color="#FF5FEF"/>
</linearGradient>
</defs>
</svg>
